<svg width="24" height="24" viewBox="0 0 24 24" fill="none" xmlns="http://www.w3.org/2000/svg">
  <path d="M12 2C6.47715 2 2 6.47715 2 12C2 17.5228 6.47715 22 12 22C17.5228 22 22 17.5228 22 12C22 6.47715 17.5228 2 12 2Z" fill="#FFC107"/>
  <path d="M12 5C9.79086 5 8 6.79086 8 9C8 11.2091 9.79086 13 12 13C14.2091 13 16 11.2091 16 9C16 6.79086 14.2091 5 12 5Z" fill="#FFA000"/>
  <path d="M12 15L10 19H14L12 15Z" fill="#A0522D"/>
  <path d="M17 9C17 7.89543 17.8954 7 19 7C20.1046 7 21 7.89543 21 9C21 10.1046 20.1046 11 19 11C17.8954 11 17 10.1046 17 9Z" fill="#6B8E23"/>
  <path d="M7 9C7 7.89543 6.10457 7 5 7C3.89543 7 3 7.89543 3 9C3 10.1046 3.89543 11 5 11C6.10457 11 7 10.1046 7 9Z" fill="#6B8E23"/>
</svg>